<svg xmlns="http://www.w3.org/2000/svg" version="1.1" xmlns:xlink="http://www.w3.org/1999/xlink" xmlns:svgjs="http://svgjs.dev/svgjs" width="1500" height="321" viewBox="0 0 1500 321"><g transform="matrix(1,0,0,1,-0.9090909090909918,-0.47819242881459445)"><svg viewBox="0 0 396 85" data-background-color="#ffffff" preserveAspectRatio="xMidYMid meet" height="321" width="1500" xmlns="http://www.w3.org/2000/svg" xmlns:xlink="http://www.w3.org/1999/xlink"><g id="tight-bounds" transform="matrix(1,0,0,1,0.2400000000000091,0.12662416339327365)"><svg viewBox="0 0 395.52 84.74675167321342" height="84.74675167321342" width="395.52"><g><svg viewBox="0 0 395.52 84.74675167321342" height="84.74675167321342" width="395.52"><g><svg viewBox="0 0 535.6777255998544 114.77788022927443" height="84.74675167321342" width="395.52"><g transform="matrix(1,0,0,1,0,15.862934242974973)"><svg viewBox="0 0 395.52 83.05201174332448" height="83.05201174332448" width="395.52"><g id="textblocktransform"><svg viewBox="0 0 395.52 83.05201174332448" height="83.05201174332448" width="395.52" id="textblock"><g><svg viewBox="0 0 395.52 83.05201174332448" height="83.05201174332448" width="395.52"><g transform="matrix(1,0,0,1,0,0)"><svg width="395.52" viewBox="4.25 -37.15 178.81 37.55" height="83.05201174332448" data-palette-color="#00154f"><path d="M10.78 0L4.25 0 4.25-37.15 10.88-37.15 25.35-14.48 30.2-4.95 28.48-4.95 27.5-16.73 27.5-37.15 34.1-37.15 34.1 0 27.08 0 13.23-21.93 7.6-32.73 9.7-32.73 10.78-19.95 10.78 0ZM53.67 0.4L53.67 0.4Q47.4 0.4 44.04-3.41 40.67-7.23 40.67-14L40.67-14Q40.67-18.05 42.19-21.25 43.7-24.45 46.62-26.31 49.55-28.18 53.77-28.2L53.77-28.2Q55.92-28.23 57.86-27.63 59.8-27.03 61.31-25.74 62.82-24.45 63.72-22.38 64.62-20.3 64.67-17.38L64.67-17.38Q64.67-15.83 64.62-14.54 64.57-13.25 64.4-12.33L64.4-12.33 44.5-12.33 45-16.3 58.12-16.3Q58.25-18.3 57.91-19.93 57.57-21.55 56.52-22.5 55.47-23.45 53.52-23.45L53.52-23.45Q51.7-23.45 50.32-22.45 48.95-21.45 48.22-19.05 47.5-16.65 47.6-12.48L47.6-12.48Q47.7-9.6 48.72-7.9 49.75-6.2 51.46-5.46 53.17-4.73 55.4-4.73L55.4-4.73Q56.5-4.73 57.91-4.94 59.32-5.15 60.61-5.48 61.9-5.8 62.57-6.2L62.57-6.2 63.77-2.33Q62.85-1.58 61.25-0.95 59.65-0.33 57.67 0.04 55.7 0.4 53.67 0.4ZM75.27 0L67.39 0 77.64-14.83 77.77-13.18 67.37-27.85 75.17-27.85 80.3-19.93 82.17-16.78 80.27-16.78 81.87-19.95 86.89-27.85 94.62-27.85 84.14-13.28 84.14-15.2 94.82 0 86.94 0 81.62-8.28 79.64-11.55 81.8-11.55 80.17-8.25 75.27 0ZM110.19 0.4L110.19 0.4Q106.62 0.4 104.13-0.8 101.64-2 100.11-4.08 98.57-6.15 97.88-8.84 97.19-11.53 97.22-14.5L97.22-14.5Q97.29-18.98 99.06-22.03 100.82-25.08 103.84-26.64 106.87-28.2 110.69-28.2L110.69-28.2Q115.47-28.2 118.33-26.14 121.19-24.08 122.45-20.7 123.72-17.32 123.64-13.35L123.64-13.35Q123.59-8.88 121.84-5.81 120.09-2.75 117.08-1.18 114.07 0.4 110.19 0.4ZM110.37-4.5L110.37-4.5Q113.52-4.48 114.98-6.85 116.44-9.22 116.44-13.65L116.44-13.65Q116.44-16.3 115.86-18.48 115.27-20.65 113.97-21.95 112.67-23.25 110.54-23.28L110.54-23.28Q107.39-23.33 105.93-21 104.47-18.68 104.47-14.35L104.47-14.35Q104.47-11.68 105.07-9.45 105.67-7.23 106.97-5.88 108.27-4.53 110.37-4.5ZM136.69 0L129.69 0 129.69-27.83 136.04-27.83 136.14-24.75Q137.09-25.53 138.6-26.31 140.12-27.1 141.9-27.65 143.69-28.2 145.52-28.25L145.52-28.25Q149.92-28.35 151.93-25.94 153.94-23.53 153.94-17.45L153.94-17.45 153.94 0 146.92 0 146.92-16.63Q146.92-19.95 146.04-21.34 145.17-22.73 142.47-22.58L142.47-22.58Q141.67-22.55 140.67-22.3 139.67-22.05 138.63-21.56 137.59-21.08 136.69-20.35L136.69-20.35 136.69 0ZM168.71 0.4L168.71 0.4Q166.11 0.4 164.14-0.65 162.16-1.7 161.05-3.59 159.94-5.48 159.94-8L159.94-8Q159.94-10.58 161.34-12.43 162.74-14.28 165.11-15.28L165.11-15.28Q166.76-15.98 168.68-16.35 170.59-16.73 172.5-16.88 174.41-17.03 176.06-17.03L176.06-17.03 177.31-15.48 176.06-13.18Q175.14-13.15 173.94-13.03 172.74-12.9 171.6-12.65 170.46-12.4 169.69-12.03L169.69-12.03Q168.61-11.55 167.83-10.75 167.04-9.95 167.04-8.4L167.04-8.4Q167.04-6.35 168.18-5.34 169.31-4.33 171.26-4.33L171.26-4.33Q172.26-4.33 173.28-4.61 174.29-4.9 175.05-5.28 175.81-5.65 176.06-5.95L176.06-5.95 177.34-4.5 176.44-2.35Q175.31-1.35 173.31-0.48 171.31 0.4 168.71 0.4ZM183.06-18.65L183.06 0 176.44 0 176.44-4.15 176.06-4.15 176.06-19.28Q176.06-21.5 174.89-22.2 173.71-22.9 171.51-22.9L171.51-22.9Q169.94-22.9 168.24-22.61 166.54-22.33 165.05-21.88 163.56-21.43 162.64-20.9L162.64-20.9 161.09-25.5Q161.84-25.95 163.59-26.61 165.34-27.28 167.61-27.78 169.89-28.28 172.19-28.28L172.19-28.28Q175.79-28.28 178.21-27.44 180.64-26.6 181.85-24.51 183.06-22.43 183.06-18.65L183.06-18.65Z" opacity="1" transform="matrix(1,0,0,1,0,0)" fill="#00154f" class="wordmark-text-0" data-fill-palette-color="primary" id="text-0"></path></svg></g></svg></g></svg></g></svg></g><g transform="matrix(1,0,0,1,415.12658672431706,0)"><svg viewBox="0 0 120.55113887553733 114.77788022927443" height="114.77788022927443" width="120.55113887553733"><g><svg xmlns="http://www.w3.org/2000/svg" xmlns:xlink="http://www.w3.org/1999/xlink" version="1.1" x="0" y="0" viewBox="5.9 8 87.69999999999999 83.5" enable-background="new 0 0 100 100" xml:space="preserve" height="114.77788022927443" width="120.55113887553733" class="icon-icon-0" data-fill-palette-color="accent" id="icon-0"><rect x="5.9" y="8" width="36.6" height="36.6" fill="#ff9901" data-fill-palette-color="accent"></rect><path d="M32.6 61.9H39.6L28.5 51 17.4 62H24.4C25.4 74.6 36.1 84.6 49 84.6V76.5C40.6 76.4 33.6 70.1 32.6 61.9" fill="#ff9901" data-fill-palette-color="accent"></path><path d="M66.7 38.4H59.8L70.9 49.5 82 38.4H75C74 25.8 63.3 15.8 50.3 15.8V24C58.7 24 65.7 30.3 66.7 38.4" fill="#ff9901" data-fill-palette-color="accent"></path><polygon points="84.3,54.9 57,82.2 57,85.8 87.9,54.9 " fill="#ff9901" data-fill-palette-color="accent"></polygon><polygon points="89.3,54.9 57,87.2 57,90.8 92.9,54.9 " fill="#ff9901" data-fill-palette-color="accent"></polygon><polygon points="93.6,65.9 68,91.5 71.6,91.5 93.6,69.5 " fill="#ff9901" data-fill-palette-color="accent"></polygon><polygon points="93.6,60.9 63,91.5 66.6,91.5 93.6,64.5 " fill="#ff9901" data-fill-palette-color="accent"></polygon><polygon points="74.3,54.9 57,72.2 57,75.8 77.9,54.9 " fill="#ff9901" data-fill-palette-color="accent"></polygon><polygon points="64.3,54.9 57,62.2 57,65.8 67.9,54.9 " fill="#ff9901" data-fill-palette-color="accent"></polygon><polygon points="79.3,54.9 57,77.2 57,80.8 82.9,54.9 " fill="#ff9901" data-fill-palette-color="accent"></polygon><polygon points="69.3,54.9 57,67.2 57,70.8 72.9,54.9 " fill="#ff9901" data-fill-palette-color="accent"></polygon><polygon points="57,54.9 57,60.8 62.9,54.9 " fill="#ff9901" data-fill-palette-color="accent"></polygon><polygon points="93.6,55.9 58,91.5 61.6,91.5 93.6,59.5 " fill="#ff9901" data-fill-palette-color="accent"></polygon><polygon points="93.6,85.9 88,91.5 93.6,91.5 " fill="#ff9901" data-fill-palette-color="accent"></polygon><polygon points="93.6,80.9 83,91.5 86.6,91.5 93.6,84.5 " fill="#ff9901" data-fill-palette-color="accent"></polygon><polygon points="93.6,75.9 78,91.5 81.6,91.5 93.6,79.5 " fill="#ff9901" data-fill-palette-color="accent"></polygon><polygon points="93.6,70.9 73,91.5 76.6,91.5 93.6,74.5 " fill="#ff9901" data-fill-palette-color="accent"></polygon></svg></g></svg></g></svg></g></svg></g><defs></defs></svg><rect width="395.52" height="84.74675167321342" fill="none" stroke="none" visibility="hidden"></rect></g></svg></g></svg>